<svg transform="scale(1)" fill="silver" class="rw-icon " viewBox="0 0 64 64" version="1.1" xmlns="http://www.w3.org/2000/svg" focusable="false"><path d="M51.458 43.487v-6.231c0-.09-.001-.18-.01-.269a1.485 1.485 0 0 0-1.17-1.286 2.506 2.506 0 0 0-.462-.037l-35.66-.001c-.057 0-.115-.002-.172 0a1.45 1.45 0 0 0-.803.259c-.421.297-.659.699-.66 1.22-.003 2.082-.001 4.163-.001 6.245 0 .048.009.096.015.157.073.02.142.04.212.056.538.124 1.04.331 1.505.628 1.643 1.05 2.406 2.97 1.847 4.78-.49 1.586-1.608 2.548-3.182 3.007-.124.036-.251.065-.398.102v4.631l.001.172a1.49 1.49 0 0 0 1.22 1.452c.143.026.293.023.439.023l31.326.001h4.36c.13 0 .262-.002.389-.028a1.474 1.474 0 0 0 1.203-1.462c.005-1.519.001-3.038 0-4.556 0-.055-.008-.11-.014-.175-.06-.008-.107-.015-.154-.02-1.052-.131-1.983-.532-2.75-1.271-1.003-.97-1.454-2.159-1.298-3.544.137-1.224.75-2.193 1.73-2.929.723-.543 1.545-.832 2.487-.924m4.973 3.878v.93c-.03.15-.053.302-.087.45-.248 1.065-.832 1.906-1.715 2.538-.167.12-.22.242-.218.442.008 1.73.005 3.461.004 5.192a4.25 4.25 0 0 1-.814 2.545c-.905 1.25-2.144 1.885-3.684 1.889-4.808.009-9.617.003-14.425.003H14.134a4.78 4.78 0 0 1-1.447-.205A4.455 4.455 0 0 1 9.56 56.89c-.006-1.633-.001-3.266-.001-4.899v-.266c-.034-.027-.04-.033-.047-.037l-.171-.094c-1.217-.693-1.999-1.704-2.25-3.099-.016-.086-.06-.166-.091-.249v-.833c.03-.083.075-.164.09-.25.25-1.386 1.018-2.399 2.23-3.083.181-.102.245-.207.244-.414-.008-2.14-.008-4.278-.003-6.417a4.452 4.452 0 0 1 4.47-4.536c1.534.021 3.07.003 4.604.007a.97.97 0 0 0 .422-.099c.502-.234 1.004-.471 1.515-.684 1.002-.415 2.012-.808 3.013-1.225a9.234 9.234 0 0 0 1.605-.832c.299-.2.576-.428.795-.719.196-.26.321-.549.347-.875.031-.394-.078-.76-.242-1.11-.192-.41-.453-.775-.728-1.13-2.288-2.94-3.767-6.222-4.214-9.944-.145-1.204-.181-2.406-.042-3.613.181-1.58.598-3.094 1.345-4.498 1.871-3.519 4.743-5.582 8.76-5.95.048-.004.091-.027.137-.042h1.372c.07.015.14.04.211.045.87.056 1.714.234 2.53.53C38.784 3.779 40.981 6.1 42.17 9.4c.496 1.378.69 2.819.768 4.272.1 1.847-.09 3.666-.6 5.448-.63 2.202-1.693 4.18-3.08 5.994-.326.427-.64.866-.921 1.325a5.772 5.772 0 0 0-.515 1.078c-.26.731-.08 1.38.463 1.93.324.329.7.587 1.096.816.743.43 1.523.783 2.323 1.09 1.127.43 2.26.846 3.387 1.274.164.062.324.093.499.092 1.469-.003 2.938-.005 4.408.002.26 0 .524.018.778.065a4.445 4.445 0 0 1 3.639 4.39v6.735c0 .065.004.131 0 .196-.006.083.03.138.099.18.062.038.121.082.18.127.932.727 1.555 1.637 1.694 2.838.004.038.028.075.043.112" fill-rule="evenodd"></path></svg>